<svg xmlns="http://www.w3.org/2000/svg" width="14" height="16" viewBox="0 0 14 16">
    <g fill="#000" fill-rule="nonzero" opacity=".4">
        <path d="M13.75 1.067H12v-.8C12 .119 11.888 0 11.75 0H10c-.138 0-.25.12-.25.267v.8h-5.5v-.8C4.25.119 4.138 0 4 0H2.25C2.112 0 2 .12 2 .267v.8H.25c-.138 0-.25.119-.25.266V15.733c0 .148.112.267.25.267h13.5c.138 0 .25-.12.25-.267V1.333c0-.147-.112-.266-.25-.266zm-3.5-.534h1.25v1.6h-1.25v-1.6zm-7.75 0h1.25v1.6H2.5v-1.6zM.5 1.6H2v.8c0 .147.112.267.25.267H4c.138 0 .25-.12.25-.267v-.8h5.5v.8c0 .147.112.267.25.267h1.75c.138 0 .25-.12.25-.267v-.8h1.5V4H.5V1.6zm0 13.867V4.533h13v10.934H.5z"/>
        <path d="M9 6.133H2.25v7.734h9.5V6.133H9zm-1.75.534H9v1.866H7.25V6.667zM9 10.933H7.25V9.067H9v1.866zM5 9.067h1.75v1.866H5V9.067zm0-2.4h1.75v1.866H5V6.667zm-2.25 0H4.5v1.866H2.75V6.667zm0 2.4H4.5v1.866H2.75V9.067zm1.75 4.266H2.75v-1.866H4.5v1.866zm2.25 0H5v-1.866h1.75v1.866zm2.25 0H7.25v-1.866H9v1.866zm2.25 0H9.5v-1.866h1.75v1.866zm0-2.4H9.5V9.067h1.75v1.866zm0-4.266v1.866H9.5V6.667h1.75z"/>
    </g>
</svg>
